<svg xmlns="http://www.w3.org/2000/svg" viewBox="0 0 165.31 140.41"><defs><style>.cls-1{fill:#f39200;}.cls-2{fill:#1d1d1b;}</style></defs><title>MiWIDesign</title><g id="Laag_2" data-name="Laag 2"><g id="Logo"><circle class="cls-1" cx="68.4" cy="11.7" r="11.7"/><circle class="cls-1" cx="153.61" cy="11.7" r="11.7"/><path class="cls-1" d="M29.88,71.3,21,105.9H0L20.36,36.18H39.12L59.87,105.9H39.33L30.16,71.3A.15.15,0,0,0,29.88,71.3Z"/><path class="cls-1" d="M69.48,71.3l-8.92,34.6h-21L60,36.18H78.72L99.47,105.9H78.93L69.76,71.3A.15.15,0,0,0,69.48,71.3Z"/><path class="cls-1" d="M130.07,70.77,139,36.18h21L139.59,105.9H120.82L100.07,36.18h20.54l9.17,34.6A.15.15,0,0,0,130.07,70.77Z"/><path class="cls-1" d="M90.47,70.77l8.91-34.59h21L100,105.9H81.22L60.47,36.18H81l9.17,34.6A.14.14,0,0,0,90.47,70.77Z"/><path class="cls-2" d="M54.63,114.46V131c0,1.21,0,2.6.11,3.53H52.51l-.11-2.37h-.06a5,5,0,0,1-4.65,2.68c-3.31,0-5.85-2.8-5.85-6.95,0-4.54,2.8-7.34,6.13-7.34a4.57,4.57,0,0,1,4.12,2.09h.06v-8.16Zm-2.48,12a4.18,4.18,0,0,0-.12-1,3.65,3.65,0,0,0-3.58-2.88c-2.57,0-4.09,2.26-4.09,5.28,0,2.77,1.35,5,4,5a3.73,3.73,0,0,0,3.64-3,4.08,4.08,0,0,0,.12-1.07Z"/><path class="cls-2" d="M60.14,128.13c.06,3.36,2.21,4.74,4.69,4.74a9.14,9.14,0,0,0,3.79-.7l.42,1.77a11,11,0,0,1-4.55.85c-4.2,0-6.72-2.77-6.72-6.89s2.43-7.37,6.41-7.37c4.46,0,5.65,3.93,5.65,6.44a8.94,8.94,0,0,1-.09,1.16Zm7.29-1.78c0-1.58-.65-4-3.44-4-2.52,0-3.62,2.32-3.82,4Z"/><path class="cls-2" d="M72.57,132a6.56,6.56,0,0,0,3.28,1c1.81,0,2.65-.91,2.65-2s-.7-1.83-2.54-2.51c-2.45-.87-3.61-2.23-3.61-3.87,0-2.2,1.78-4,4.71-4a6.81,6.81,0,0,1,3.36.85l-.62,1.81A5.27,5.27,0,0,0,77,122.4c-1.47,0-2.29.84-2.29,1.86s.82,1.64,2.6,2.32c2.37.9,3.58,2.09,3.58,4.12,0,2.4-1.86,4.09-5.11,4.09a7.86,7.86,0,0,1-3.84-.93Z"/><path class="cls-2" d="M86.87,117a1.54,1.54,0,0,1-3.08,0,1.52,1.52,0,0,1,1.55-1.56A1.48,1.48,0,0,1,86.87,117Zm-2.77,17.5v-14h2.48v14Z"/><path class="cls-2" d="M102.61,120.53c-.06,1-.24,2.4-.24,4.07v7.93c0,3.14-.62,5.06-2,6.24a7.27,7.27,0,0,1-5,1.64,8.83,8.83,0,0,1-4.54-1.13l.62-1.89a7.73,7.73,0,0,0,4,1.07c2.54,0,4.4-1.33,4.4-4.77v-1.52h0a4.88,4.88,0,0,1-4.35,2.28c-3.39,0-5.82-2.88-5.82-6.66,0-4.63,3-7.26,6.16-7.26a4.55,4.55,0,0,1,4.26,2.37h.06l.12-2.37Zm-2.7,5.71a3.34,3.34,0,0,0-.14-1.13,3.57,3.57,0,0,0-3.47-2.63c-2.37,0-4.07,2-4.07,5.17,0,2.68,1.36,4.91,4,4.91A3.62,3.62,0,0,0,99.71,130a4.05,4.05,0,0,0,.2-1.33Z"/><path class="cls-2" d="M106.33,124.54c0-1.41,0-2.88-.12-4h2.19l.16,2.57h.06a5,5,0,0,1,4.51-2.57c1.9,0,4.83,1.13,4.83,5.82v8.16h-2.48v-7.88c0-2.2-.82-4-3.16-4a3.54,3.54,0,0,0-3.34,2.55,3.62,3.62,0,0,0-.17,1.15v8.22h-2.48Z"/></g></g></svg>